<svg fill="currentColor" width="100%" height="100%" viewBox="0 0 256 256" xmlns="http://www.w3.org/2000/svg"><path d="M128 20a108 108 0 1 0 108 108A108.12 108.12 0 0 0 128 20Zm0 192a84 84 0 1 1 84-84a84.09 84.09 0 0 1-84 84Z"></path><path d="M144 112a16 16 0 1 1 16-16a16 16 0 0 1-16 16Zm-16-4a12 12 0 1 1 12 12a12 12 0 0 1-12-12Zm-24-4a16 16 0 1 1-16 16a16 16 0 0 1 16-16Zm0 28a12 12 0 1 0-12-12a12 12 0 0 0 12 12Zm-8-40a16 16 0 1 1-16-16a16 16 0 0 1 16 16Zm-16-4a12 12 0 1 1 12 12a12 12 0 0 1-12-12Zm48-8a16 16 0 1 1 16 16a16 16 0 0 1-16-16Zm0 28a12 12 0 1 0-12-12a12 12 0 0 0 12 12Zm-8-40a16 16 0 1 1-16-16a16 16 0 0 1 16 16Zm-16-4a12 12 0 1 1 12 12a12 12 0 0 1-12-12Z"></path></svg>